<?xml version="1.0" encoding="utf-8"?>
<!-- Generator: Adobe Illustrator 18.0.0, SVG Export Plug-In . SVG Version: 6.00 Build 0)  -->
<!DOCTYPE svg PUBLIC "-//W3C//DTD SVG 1.1//EN" "http://www.w3.org/Graphics/SVG/1.1/DTD/svg11.dtd">
<svg version="1.1" id="Layer_1" xmlns="http://www.w3.org/2000/svg" xmlns:xlink="http://www.w3.org/1999/xlink" x="0px" y="0px"
	 viewBox="0 0 512 512" enable-background="new 0 0 512 512" xml:space="preserve">
<circle fill="#E8E8E8" cx="256" cy="256" r="247.2"/>
<path fill="#C3C6C8" d="M313.4,335.7l37.7,51.1l-35.5,109.1l0,0c-19.1,4.7-39,7.2-59.6,7.2s-40.5-2.5-59.6-7.2l0,0L161,386.8
	l37.7-51.1H313.4z"/>
<path fill="#D5D6D8" d="M502.5,273.5L502.5,273.5c-2.9,41.4-16,80-36.7,113.3h0H351l-37.7-51.1l35.5-109.1l60.9-20.5L502.5,273.5z"
	/>
<path fill="#C3C6C8" d="M256,94.3v64.8l-92.8,67.4l-60.9-20.5L66.8,96.9l0,0c25.7-30.6,58.7-54.8,96.3-70.1L256,94.3z"/>
<polygon fill="#006400" points="198.6,335.7 163.2,226.5 256,159.1 348.8,226.5 313.4,335.7 "/>
<path fill="#006400" d="M256,8.8c-32.8,0-64.1,6.4-92.8,18L256,94.3l92.8-67.4C320.2,15.3,288.8,8.8,256,8.8z"/>
<path fill="#006400" d="M66.8,96.9L66.8,96.9c-36.2,43-58,98.5-58,159.1c0,5.9,0.2,11.7,0.6,17.5l0,0l92.8-67.4L66.8,96.9z"/>
<path fill="#006400" d="M161,386.8H46.3c33.5,53.7,87.1,93.5,150.2,109.1l0,0L161,386.8z"/>
<path fill="#006400" d="M445.2,96.9L445.2,96.9c36.2,43,58,98.5,58,159.1c0,5.9-0.2,11.7-0.6,17.5l0,0l-92.8-67.4L445.2,96.9z"/>
<path fill="#006400" d="M351,386.8h114.7c-33.5,53.7-87.1,93.5-150.2,109.1l0,0L351,386.8z"/>
<path d="M437,75C388.7,26.6,324.4,0,256,0S123.3,26.6,75,75C26.6,123.3,0,187.6,0,256s26.6,132.7,75,181c48.4,48.4,112.6,75,181,75
	s132.7-26.6,181-75s75-112.6,75-181S485.4,123.3,437,75z M435.2,99l-32.5,100.1l-52.3,17.6l-85.5-62.1V98.8L349.9,37
	C382.8,51.1,411.9,72.5,435.2,99z M338.4,229.9l-31.5,96.9H205.1l-31.5-96.9L256,170L338.4,229.9z M256,17.7
	c25.9,0,50.8,4.2,74.2,11.8L256,83.4l-74.2-53.9C205.2,21.8,230.1,17.7,256,17.7z M162.1,37l85.1,61.8v55.8l-85.5,62.1l-52.3-17.6
	L76.8,99C100.1,72.5,129.2,51.1,162.1,37z M17.7,256c0-52.5,17.1-101,45.9-140.5l28.3,87.1l-74.2,53.9
	C17.7,256.4,17.7,256.2,17.7,256z M18.7,277.7l85.1-61.8l52.3,17.6l32.7,100.6l-32.3,43.9H51.3C33.5,348.1,22,314.1,18.7,277.7z
	 M63,395.6h91.6l28.3,87.2C134.2,467.1,92.4,436.2,63,395.6z M256,494.3c-18.1,0-35.8-2-52.7-5.9l-32.5-100.1l32.3-43.9h105.8
	l32.3,43.9l-32.5,100.1C291.8,492.3,274.1,494.3,256,494.3z M329.1,482.8l28.3-87.2H449C419.6,436.2,377.8,467.1,329.1,482.8z
	 M460.7,377.9H355.5l-32.3-43.9l32.7-100.6l52.3-17.6l85.1,61.8C490,314.1,478.5,348.1,460.7,377.9z M420.1,202.7l28.3-87.1
	c28.9,39.4,45.9,88,45.9,140.5c0,0.2,0,0.4,0,0.6L420.1,202.7z"/>
</svg>
